<svg id="Layer_1" data-name="Layer 1" xmlns="http://www.w3.org/2000/svg" viewBox="0 0 512 512"><defs><style>.cls-1{fill:#707070;}</style></defs><title>truck-handdrawn</title><path class="cls-1" d="M50.76,361.45c3.6,2.64,8.24,5,7.39,4.69a45.94,45.94,0,0,1-17.08-9.46c-2.28-2.06-8.71-7.89-12.9-22.24a52.43,52.43,0,0,1-1.81-13.15V305.13q0-16.31.07-32.68c0-21.82,0-43.68.05-65.46,0-39.52,1-77.38,1.72-61.9,0,1.53.11,5.64.18,9.33.23,23.37.45,47,.69,71.69l-.64,23.62c0,4.73,0,16,0,24.3.17,0,.36,2.8.49-.67.42-11.56.62-8.43.63,15.7,0,7.84,0,15.81.05,23.81-.06,8.81.1,13.93,1.68,20.06A51.21,51.21,0,0,0,50.76,361.45ZM258.24,83.29l-14.05-1.15-55.44,0C163,82,146,82.31,125.1,82.46l-47.81.37a57.23,57.23,0,0,0-40.37,18.61A48.46,48.46,0,0,0,31,110.25c-.54,1.26.26-.12,2.07-2.38A58.31,58.31,0,0,1,44.62,96.49a41,41,0,0,1,6.08-3.84A15.59,15.59,0,0,1,54.2,91c2-.63,8.39-3.54,16.74-4.71,4.13-.7,8.56-.62,14.19-.63l15.28,0c16,.11,25.13-.06,31.43-.4,6.58-.35,16.84-.7,28.71-1,4.85-.12,22.31-.19,26.94-.11,15.39.27,30.82.29,45.53.26l21.44-.08h5.07l4.38.21a52.59,52.59,0,0,1,8.3,1.33c-2.38-.94-4.87-1.21-7.18-1.85C262.63,83.85,260.53,83.49,258.24,83.29ZM512,328.14c-.39,3.4-.5,6.4-.94,8.69-.78,4.36-2,11-7.77,20.85a72.53,72.53,0,0,1-13.74,17c-5.13,4.8-10.17,7.74-11.82,8.3a63.86,63.86,0,0,1-5.81,2.76c.16-.73.27-1.49.37-2.24.76-.41,1.46-.89,2.2-1.32a18.25,18.25,0,0,1-.44-2.41,1.27,1.27,0,0,0-.14-.49l-.17.11c-.08.19-.17.45-.26.32l-.06-.11c-.3.17-.57.39-.88.56,0-.68.06-1.35,0-2,0-.49-.1-1-.15-1.47l-.1-.37a80.73,80.73,0,0,0-3.41-11.66c-2.16-6.12-7.25-11.72-6.53-9.53.82,3.21-3.68-4.86-12.64-12.57a54.61,54.61,0,0,0-16.9-9.82,15.89,15.89,0,0,0-3.71-.91c-1.63-.26-5.48-1-9.83-1.34a77.21,77.21,0,0,0-12.6.39c-1.34.18-3.06.4-3.74.43-4.59.63-4.66.43-10.82,3.27l5.21-1.17c1.71-.25,3.35-.4,4.82-.54,1.12-.11.92.21,1.32.33a54.38,54.38,0,0,0-12,3.92c-1.29.65-2.69,1-3.82,1.75-15.26,8.6-25.7,25.14-26.55,42.59l0,2.12c.05-.08.12-.12.12-.21A52.32,52.32,0,0,1,378,346.69a53.69,53.69,0,0,1,10.22-7.55,33.46,33.46,0,0,1,7.75-3.28c1.47-.38,1.85-.26,1.47.3a51.67,51.67,0,0,1,11.49-2.77,45.81,45.81,0,0,1,7.66-.24,54.71,54.71,0,0,1,31,11.44,48.89,48.89,0,0,1,8.8,9.28A53.46,53.46,0,0,1,465,372a37.42,37.42,0,0,1,1.48,10.93c0,2.1-.27,2.61-.69,1.61a24.09,24.09,0,0,0-1.88-3.33c-.46-4.84-1.54-7.85-1.78-6.54a49.9,49.9,0,0,0-18-28.41l.64.36c-1.34-1-2.56-2.23-4-3.16a49.76,49.76,0,0,0-33.24-7.75c-1.51.26-3.11.45-4.53.75-5.86,1.27-7.35,2.26-6.63,2.26,1.35.18-4.86,2.43-8.52,5.18a49.24,49.24,0,0,0-20.58,30,47.05,47.05,0,0,0,2.93,29.57c.91,1.6,1.76,3.86,3,5.63A45.16,45.16,0,0,0,392,427c1.08.47,3.54,1.92,4.17,2.18a9.9,9.9,0,0,1,2,1.57,52.83,52.83,0,0,0,6.14,1.78,17,17,0,0,1-2-.22,55.54,55.54,0,0,0,27.13-1.16l.64-.65a30.23,30.23,0,0,0,4.31-1.76,36,36,0,0,0,5.11-2.77l-1.92,1.32c.28.23,1.45-.13.44.74a30.77,30.77,0,0,1-7.1,3.62c-2.89,1.17-4.22,1.33-5,1.87-.56.49-4.61,1.37-7.21,1.86-6.43.76-4.33,1.24-4.73,1.8-.15.2.22.37.4.63.42,0,2.27.08,5.61-.13a52.08,52.08,0,0,1-9.31.61l.56-.32c-1.43-.06-3.59-.22-4.16-.32a61.05,61.05,0,0,1-12.79-2c-4.58-1.2,4.56,3.69,12.64,4.55a55.07,55.07,0,0,0,29.91-4.58,59.43,59.43,0,0,0,11-6.57,56,56,0,0,1-18.1,9.63l.06.14a64.33,64.33,0,0,0,6.48-2.32c4.13-1.86,7-3.61,9.52-4.93a39.65,39.65,0,0,0,9.76-8.2c4.94-5.19,9.47-13.9,11.63-18.51.88-1.72.67-.09.94,0A56.93,56.93,0,0,0,471.65,385,63.72,63.72,0,0,1,473,395.07l.75-4.16c-.68,6.26-.91,7.86-1,9.2s.18,2.48-1.56,7.49a66.49,66.49,0,0,0,3.31-9.74c-.51,3.35-1.39,7.33-.4,5.56.9-1.38-.77,5-1.25,7.2-.21.88.76-.67.73-.15a8.73,8.73,0,0,1-1,3.7c-2.57,5.15-3.26,8.12-9.62,14.81l-3,3.14a63.19,63.19,0,0,1-39.25,18.51,69.13,69.13,0,0,1-29.82-3.82,64.91,64.91,0,0,1-41.74-47.06c-2.24,0-5.65.07-10.62.08l-29.91.05c0-2.41,0-4.82,0-7.24l-16,1.14,12.84.15c-38.25.21-19.27,1.17-50.56,1.5l30.36.34c-10,.3-21.8.52-16,1,4.52.38-14.37.86-20.62,1.31-2.52.18,2.6.41,1.22.6a67.4,67.4,0,0,1-10.6.67c-15.93.1-23.58.83-48.17.34-.47,2.76-.91,5.18-.1,3.72s-.77,5-1.25,7.2c-.21.88.76-.67.73-.15a8.73,8.73,0,0,1-1,3.7c-2.57,5.15-3.26,8.12-9.62,14.81l-3,3.14a63.19,63.19,0,0,1-39.25,18.51,69.13,69.13,0,0,1-29.82-3.82,65.09,65.09,0,0,1-42.09-48.48,74,74,0,0,1-15.12-4.12,79.07,79.07,0,0,1-38.38-32A76.4,76.4,0,0,1,2.24,338c-2-8.44-2.05-18.07-2-24.39C.18,280.3.09,247.43,0,214.16q0-28.79,0-57.71V142c0-2.28.21-5.71.35-8.51s.81-5.86,1.25-8.78a79.65,79.65,0,0,1,14.64-32A83.68,83.68,0,0,1,35.92,74.25,79.07,79.07,0,0,1,69.8,61.77c3.1-.39,6.34-.44,9.42-.6H87l15.44,0c20.43.06,39.91.25,54.75.54l53.49.38-1.81-.2c6.09-.25,9.31-.64,18.88-.73l29.24-.1c2.21-.05,5.71.18,8.64.34s6.07.84,9.1,1.29A79,79,0,0,1,292,68.57a80.33,80.33,0,0,1,25.75,19.25,77.75,77.75,0,0,1,17.89,34.43,64.13,64.13,0,0,0-2.78-6.65,76.21,76.21,0,0,1,3.94,22.55c.18,3.34,0,5.1,0,7.29,0,2-.06,3.81-.08,5.37-.12,6.21-.27,8.76-.44,9.33-.34,1.14-.75-5.62-1.13-6.87,0,4.08,0,8,0,12,9.1-.08,14.67-.36,12.18-.85l39.65-.11c6.6.07,12.94-.25,19.74.18a67.21,67.21,0,0,1,19.52,4.57l-1.64-.53a72.49,72.49,0,0,1,10.75,5.38A67.55,67.55,0,0,1,451.09,187c4.61,5,8,11.16,11.14,16.91l19.36,34.84,5.11,9.19c6.56,12,8.47,15.41,8.05,13.92s1.28,1.21,3.73,5.45a65.92,65.92,0,0,1,6.32,16.07c1.93,7,2.1,14.87,2.08,21.95,0,7.33.4,14.38-.12,22.36a68.64,68.64,0,0,1-20.07,42,64.16,64.16,0,0,1-10.91,8.43c.08,1.07.16,2.14.14,3.24a70.84,70.84,0,0,0,31.13-40.66,75.32,75.32,0,0,0,2.67-20.14c0-6.26,0-12.88,0-20.86.5-11.85-3.55-26.27-9.29-35.8l-3.23-8.18-3.88-9.21,6,10.71,3.22,5.7c1.15,2,2.38,4.4,3.4,6.73a69.14,69.14,0,0,1,5.82,30.83c-.08,2.87,0,13.69.11,16.7C512.09,320.62,512,324.77,512,328.14ZM430,444.9a18.51,18.51,0,0,0,4.45-1A59.8,59.8,0,0,0,448.25,437a67,67,0,0,0,7.17-5.75,48,48,0,0,0,4-3.8l.32-.67a62.3,62.3,0,0,1-28.18,17.53Zm-68-49.84a42.38,42.38,0,0,0,7.58,18.42,52.08,52.08,0,0,1-4-7.21l0-.19a56.46,56.46,0,0,0,3,5.37,59.7,59.7,0,0,1-3.35-7.14A62,62,0,0,1,362,395.05ZM335.26,167.88c0,2.22,0,4.42,0,6.62,3-.38,10.19-.71,28.34-.81C376,173.62,390.38,172.5,386,172c-3.15-.39-.18-.77,6.59-1,7-.22,17-1.12,27.69,2.63a60.6,60.6,0,0,1,29.77,21.73c1.61,2.17,3.22,4.55,4.22,6,3.64,5.64,16.47,27.81,23.4,40.49l3.68,6.91c4.23,8.65,4.16,8.52,11.35,20.57L483.68,250a5.39,5.39,0,0,1-.75-2.6c4.36,7.93,9,15.92,13.1,23.8a62.66,62.66,0,0,1,3.14,8.27A63.34,63.34,0,0,1,502,292.93c.44,4.53.23,9.24.3,13.95-.12,9.43.66,18.82-1.55,27.75a63.45,63.45,0,0,1-25.56,37.78l0,.17A63.92,63.92,0,0,0,495.95,349a61.35,61.35,0,0,0,6.36-21.1c.71-7.31.39-14.89.48-22.37.26-9.22-.3-18.33-3.36-27-2.91-8.51-6.34-13.36-7.68-16.39s-1.6-3.7-.69-2.86l-13-22.63-8.3-14.62-9.43-16.78c-3.06-5.49-6-10.77-10-15.28a62.41,62.41,0,0,0-28.46-19.06,72.54,72.54,0,0,0-12.64-2.8c-4.61-.65-9.49-.45-14.17-.47l-43.34.19C344.95,167.91,339.55,167.91,335.26,167.88ZM325.19,360.35c.17,4,.34,8.15.5,12.08l.58,9.81,1.24-.07c3.47-.24,2.52-.51-.44-.74.16-2.28.31-5.51.42-9l.21-13.74c0-20.64,0-41.73.06-62.63,0-8.59.07-17.19.11-26.29l.24,41.92.15,0c0-4.64,0-9.3.07-13.93,0-6.44,0-11.67.14-16.22-.43-9-.73-30.13-.7-55.4,0-16.64,0-33.36,0-50-.42-.08-.44-.17,0-.26,0-2.71,0-5.42,0-8.12-1.63-.06-2.78-.13-3.46-.22,0,.2,0,.41,0,.61l.52,56.87c0,12.58.09,29.56.13,44.53.06,20.85.12,41.88.17,62.53.13,7.35.23,12.64.34,19.2l-.29-1C325.19,353.94,325.2,357.29,325.19,360.35ZM335.29,177l5-.23-5-.16C335.29,176.75,335.29,176.88,335.29,177ZM36.43,90.82a3.72,3.72,0,0,0,.62-.41,65.34,65.34,0,0,1,33.26-14.6c6.12-.83,12.22-.62,18.23-.63l18.13,0,72.54.07,44.62-.07c29.45,0,37.88.17,34.08,1,16.39-.08,29,4.63,39.58,12.28a64.07,64.07,0,0,1,26.53,50c.24,9.76.17,19.26.27,28.63l.29-.06c1.24-.21,2.23-.43,3.17-.65v-4.93c0-4.66-.19-9.62-.32-12.59-.18-2.77,0-7.13-.57-13.32a67.81,67.81,0,0,0-5-20.34c-5.75-14.36-18-27-28.75-32.91a72.46,72.46,0,0,0-12-5.64,59,59,0,0,0-16.66-3.85c-5.1-.4-10.55-.14-21.9.05,6,.27,12,.41,17.88.78a64.85,64.85,0,0,1,16.63,3.16c3.77,1.19,2.77,1.34,4,1.9a68,68,0,0,0-22-3.82H237.16l-14.6-.16-90.89.12-45.43.07c-7.49-.09-15.38.07-22.85,2a65.65,65.65,0,0,0-21.06,9.32C40.28,87.78,38.21,89.16,36.43,90.82ZM13.37,154.71c.1,12.33.22,26.53.34,40.64,0-10.69,0-19.75,0-28.8l0-.66c0,4.37.07,8.74.16,21.48.08-14.44.12-22.74.15-27.75-.07-6.12-.14-11.86-.2-17.48-.05-2.81.14-5.66.24-8.48.48-2.79.57-5.66,1.39-8.43a36.79,36.79,0,0,0-1.18,5.61,43.05,43.05,0,0,0-.73,7C13.24,142.89,13.42,148.52,13.37,154.71Zm49.2,232.46c.63.17,1.28.23,1.92.37-.12-1.8-.09-3.63,0-5.33a88.54,88.54,0,0,1-9.86-3c-10.66-4.51-13.54-7.44-14.73-7.77-1.12-.5,0,.66-.79.43-.54-.16.38.76.73,1.36,1.18.83,6.26,5.28,17.36,9.54a64.2,64.2,0,0,1-27.4-17.89l1.55,1.19a68.9,68.9,0,0,1-8.92-11.76A66.41,66.41,0,0,1,13.52,332a78.61,78.61,0,0,1-1.33-11.31c-.12-3.47-.22-6.72-.32-9.64-.29-7.8-.62-3.2-.88,6.63a74,74,0,0,0,1.52,18.57,63.62,63.62,0,0,0,8,19.95A68.47,68.47,0,0,0,62.57,387.16ZM79.35,397.6c.32.67.58,1.37.93,2-.51-1.5-1-3-1.37-4.56A23,23,0,0,0,79.35,397.6Zm7.14,15.88a52.08,52.08,0,0,1-4-7.21l0-.19a56.46,56.46,0,0,0,3,5.37,59.7,59.7,0,0,1-3.35-7.14c-.69-1.59-1.28-3.11-1.8-4.63h-.43A43.77,43.77,0,0,0,86.5,413.47Zm90.15,13.31a62.3,62.3,0,0,1-28.18,17.53l-1.57.59a18.51,18.51,0,0,0,4.45-1A59.8,59.8,0,0,0,165.16,437a67,67,0,0,0,7.17-5.75,48,48,0,0,0,4-3.8Zm14.25-27.09-.89,0h-.31c0,.15,0,.3,0,.44-.06,1.34.18,2.48-1.56,7.49A58.34,58.34,0,0,0,190.89,399.69Zm157.67-3a61,61,0,0,1-.87-7.52c-3.5,0-7,0-10.6,0s-12.35-.14-14.26-.27a13.12,13.12,0,0,1-2.94-.35c.14-1.83.3-2.77.46-4.14,0-4.89.08-10.7.13-17.6l.26,5.11c-.06-12.38-.12-22.91-.17-33.25.09-10.17.17-20.15.27-31.35l-.39-1.91c0-7,0-14,.06-24.63.12,4.8.16,6.8.13,5.46.34-.33.64-3.06.86,0,0,.58.08,1.58.11,2.84,0-23.37-.08-46.55-.12-69.72l.1,2.7c.06-6.29.13-12.52.19-18.87L321.71,139a62.74,62.74,0,0,0-45-58.57,69.63,69.63,0,0,0-21.43-2.56c-4,0-5,.13-3.77.31,4.51.66-20.14.73-37.29.9l-70,.53-36.12.2-18.18.1c-6.09,0-12.21-.05-17.75.52C54,82.51,36.56,93.55,27.27,109.71a58.09,58.09,0,0,0-8.17,26c-.3,4.39-.18,9.33-.16,14.07s.07,9.45.11,14.09c0,7.16,0,16.5,0,24.84-.05,34.19-.1,66.79-.16,102.21,0,4.58-.14,15.61-.27,18.22-.24,5-.51,6-.81,9.1a65.48,65.48,0,0,0,3.44,22.83c-.14-.31-.25-.63-.38-.95a61.59,61.59,0,0,0,43.58,40.14v-.13a58.54,58.54,0,0,1,15.66-37.69,77.33,77.33,0,0,1,14.54-12.35l-.66.18a34.9,34.9,0,0,1,5.48-4.09,54,54,0,0,1,20.24-6.55,69.6,69.6,0,0,1,20.9.35l-2.19.53c10.67,1.63,13.46,3.66,13.74,4s-2.1,0-2.61.26a60,60,0,0,1,19.9,10.32c8.9,6.83,16.11,16.88,19.23,26.13l1.7,4.78c.4,1.32.75,2.67,1.07,4,19.7,0,39.26.08,58.14.32,37.31.48,50.52,1.55,20.66,2.18l-19.85.18-56.81-.25,6.38-.47-6.39.1L192,372a54,54,0,0,1,.83,9.34,36.3,36.3,0,0,0-1-5.46c.54,6.57-.12,9.86-.9,3.91-.21-1.35-.36.22-.57-.06a13,13,0,0,1-1.16-3.43c-.27-1.08-.57-2.53-1.06-4.37l-1.4,0c-.32-.68-.72-1.31-1.09-2h1.91c-.46-1.56-1-3.26-1.78-5.31-2.16-6.12-7.25-11.72-6.53-9.53.82,3.21-3.68-4.86-12.64-12.57a54.61,54.61,0,0,0-16.9-9.82,15.89,15.89,0,0,0-3.71-.91c-1.63-.26-5.48-1-9.83-1.34a77.21,77.21,0,0,0-12.6.39c-1.34.18-3.06.4-3.74.43-4.59.63-4.66.43-10.82,3.27l5.21-1.17c1.71-.25,3.35-.4,4.82-.54,1.12-.11.92.21,1.32.33a54.38,54.38,0,0,0-12,3.92c-1.29.65-2.69,1-3.82,1.75C89.28,347.48,78.83,364,78,381.46l0,2.12c.05-.08.12-.12.12-.21a52.32,52.32,0,0,1,16.81-36.68,53.69,53.69,0,0,1,10.22-7.55,33.46,33.46,0,0,1,7.75-3.28c1.47-.38,1.85-.26,1.47.3a51.67,51.67,0,0,1,11.49-2.77,45.81,45.81,0,0,1,7.66-.24,54.71,54.71,0,0,1,31,11.44,48.89,48.89,0,0,1,8.8,9.28,53.46,53.46,0,0,1,8.7,18.08,37.42,37.42,0,0,1,1.48,10.93c0,2.1-.27,2.61-.69,1.61a24.09,24.09,0,0,0-1.88-3.33c-.46-4.84-1.54-7.85-1.78-6.54a49.9,49.9,0,0,0-18-28.41l.64.36c-1.34-1-2.56-2.23-4-3.16a49.76,49.76,0,0,0-33.24-7.75c-1.51.26-3.11.45-4.53.75-5.86,1.27-7.35,2.26-6.63,2.26,1.35.18-4.86,2.43-8.52,5.18a49.24,49.24,0,0,0-20.58,30,47.05,47.05,0,0,0,2.93,29.57c.91,1.6,1.76,3.86,3,5.63A45.16,45.16,0,0,0,108.92,427c1.08.47,3.54,1.92,4.17,2.18a9.9,9.9,0,0,1,2,1.57,52.83,52.83,0,0,0,6.14,1.78,17,17,0,0,1-2-.22,49.44,49.44,0,0,0,14,1.09,49.37,49.37,0,0,0,13.16-2.25l.64-.65a30.23,30.23,0,0,0,4.31-1.76,36,36,0,0,0,5.11-2.77l-1.92,1.32c.28.23,1.45-.13.44.74a30.77,30.77,0,0,1-7.1,3.62c-2.89,1.17-4.22,1.33-5,1.87-.56.49-4.61,1.37-7.21,1.86-6.43.76-4.33,1.24-4.73,1.8-.15.2.22.37.4.63.42,0,2.27.08,5.61-.13a52.08,52.08,0,0,1-9.31.61l.56-.32c-1.43-.06-3.59-.22-4.16-.32a61.05,61.05,0,0,1-12.79-2c-4.58-1.2,4.56,3.69,12.64,4.55a55.07,55.07,0,0,0,29.91-4.58,59.41,59.41,0,0,0,11-6.57,56,56,0,0,1-18.1,9.63l.06.14a64.33,64.33,0,0,0,6.48-2.32c4.13-1.86,7-3.61,9.52-4.93a39.65,39.65,0,0,0,9.76-8.2c4.94-5.19,9.47-13.9,11.63-18.51.88-1.72.67-.09.94,0A56.93,56.93,0,0,0,188.56,385c.47,2.55.84,5,1.07,7.44.13-.67.32-1.34.4-2,22.67-.07,52.56-.32,68.31.28,6.13.23,1,.59,1,.89h49.29c0-9.62,0-19.22,0-28.63,0-7.24.09-14.29.28-20.94.1-3.58.3-7.71.43-7,.77,4.27,1.53,9.51,2.29,15.19.33,2.45.41,8.48.36,19.74q0,10.74-.05,21.65h11.64l-11.65.83c0,1.42,0,2.81,0,4.24Zm.48,2.53c0-.18-.1-.35-.13-.53h-1c0,.16-1.74.36.41.49ZM470.8,358.55a52.6,52.6,0,0,0,11.71-14,54.13,54.13,0,0,0,6.73-25.31c.06-3.87.14-9.34.23-15.25,0-1.48,0-3,0-4.51s0-2.47-.06-3.73a50.7,50.7,0,0,0-.81-6.85l0,.9c-.81-2.83-1.49-4.26-3.11-8.51a54.45,54.45,0,0,0-3-6.21l-4.4-7.92c-3-5.38-5.89-10.84-8.71-16.28-4-7.72-10.86-20.13-17.21-31.87l2.51,2.77L445.63,205c-1.43-2.71-2.13-3.77-2.13-4.11-.06-.67,2.25,1.86,2.84,2.26a53.14,53.14,0,0,0-24.85-21,50.4,50.4,0,0,0-11.95-3.35,82,82,0,0,0-13.39-.69c-10.07,0-19.81-.15-28.59-.41l-20.12,0-12.15-.26q0,11.37.07,22.33c.37-1.34.83,9.27,1.26,12.95.18,1.56.41-1.61.6-.75a26.33,26.33,0,0,1,.67,6.57c.11,10,.86,14.74.32,30.55,0,1.37,0,5.2,0,7.45.27,25.82.16,50.41-.11,76.06,0,11.83-.09,25.37-.14,38h0l1-.05,9.95-.05a59.37,59.37,0,0,1,3.6-11.53,60.38,60.38,0,0,1,10.8-16.46,77.33,77.33,0,0,1,14.54-12.35l-.66.18a34.9,34.9,0,0,1,5.48-4.09,54,54,0,0,1,20.24-6.55,69.6,69.6,0,0,1,20.9.35l-2.19.53c10.67,1.63,13.46,3.66,13.74,4s-2.1,0-2.61.26a60.7,60.7,0,0,1,38.09,33.77Zm4.21,23.3.9-.54c-.11-1-.28-2-.48-3l-.39.25A27.57,27.57,0,0,1,475,381.85ZM308.83,212c-.51,24.61-.26,51-.37,76.4,0,6.72,0,13.68,0,20.53l.19,2.28,1.94-64.48-.1-4,.47,4c.09-12.49.17-23.75.25-35.22,0-3.87-.08-9.33-.18-12.31C310.38,180.7,309.3,188.89,308.83,212ZM448.6,275.58h0v0h0l-.1,0h0l.09,0Zm0,0h0Zm0,.06,0,.11a.82.82,0,0,0-.18-.21h0s0,0,.13.17Zm0-.13v-.09h0Zm0-.09v0Zm0,.15-.14,0h0l.09,0h0a.28.28,0,0,0,.12,0s-.07,0-.12,0v0Zm7.34.43a8.38,8.38,0,0,1-2.53,5.51c-1,1-1.52,1.34-.71,1.25a9.28,9.28,0,0,1-4.94,1.13l-4.16,0-8.25.06-16.36.11.7-.1c-1.63-.07-3.25-.19-4.9-.19H377c-6.39-.06-8.12-.18-7.6.2s-1.05.55-3.31.26a8.43,8.43,0,0,1-6-4.77c-1.22-3-1-6.58-1.2-10.27l-.24-9.61c-.13-6.21-.26-12.52-.39-18.81-.07-5-.14-10.21-.21-15.35,0-2.76-.08-5.51-.11-8.21a43.52,43.52,0,0,1,.44-9.2,9.61,9.61,0,0,1,4.7-6.07c2.42-1.34,5-1.33,7.84-1.46l7.95.09c4.37.07,8.78.11,13.38,0a28.52,28.52,0,0,1,5,.42,9.23,9.23,0,0,1,2.48,1.08,42,42,0,0,1,6.6,1.64c-.6-.09-1.07-.24-2.14-.35a39.75,39.75,0,0,1,13.45,6,39.31,39.31,0,0,1,9.77,10l.81.48c1.81,2.69,3.12,5.33,5.26,9.19l-1.22-1.93c-.23.28.06,1.43-.74.43-.66-.79-2.54-4.14-4.2-6.59s-2.69-3.53-3.48-4c-.57-.37-3.48-3.19-5.62-4.57-5.29-3.27-4-1.44-4.56-1.26-.21.09,0,.43,0,.74a31.83,31.83,0,0,1,3.79,3,36.51,36.51,0,0,0-6.83-4.09l.57-.08a25.54,25.54,0,0,0-3.25-1.52,32.26,32.26,0,0,0-10.73-1.41c-3.75.3,4.35,1.22,9.87,3.83a35.07,35.07,0,0,1,17,15.39l5.24,9.67c-3-5-5.67-10.56-8.76-14.33l-.11.1a38.27,38.27,0,0,1,2.79,4.27,70.55,70.55,0,0,1,4.08,8,93.28,93.28,0,0,0,5,9.5c2.94,5.17,7.17,12.18,8.68,16.19.57,1.5-.39.51-.65.66l5.29,9.52h2.9l0,4.74-.06-.84h-.71l.64,1.15-1.12-1.14-2.16,0c-5.16.06-11.19,1.19-9.38,1.72,2.64.78-5,1.51-15.05,1.47l-16.79,0a22.7,22.7,0,0,0-3.27.32,185.83,185.83,0,0,1-19.57.79c-1.18,0-2.69-.06-3.27-.14-3.43-.51-2.94-.48-7.8-.09,2.13.53,4.61,1,6.89,1.44.91.18.75.4,1.06.6-3.59-.12-7,.3-10.45-.28a5.94,5.94,0,0,1-2.66-2.07,6.93,6.93,0,0,1-1.3-5l0-5.33-.06-11.68-.14-23.58c0-.66,0-1.29-.07-1.91,0,.07-.11.11-.11.19L363,268.6l0,5.43a6.66,6.66,0,0,0,1.57,5c2.6,2.75,5.41,1.91,6.51,2.21,1.24.15,1.48.39.85.79l10.92-.37,7-.16c11-.06,20.84-.39,30.52-.79,3.26-.13,7.67-.09,11.55-.13l9.1-.08,4.54,0a23.44,23.44,0,0,0,4.1-.21,5.13,5.13,0,0,0,3.63-5.69c-.25-1.39-.38-1.91.33-1.36A7.57,7.57,0,0,1,455.94,276Zm-13.32-6.25.41.82.42,0ZM415.28,225.5c.4.74.68,1.41,1.19,2.22,1.28,1.85,3.46,5.93,5.36,9.23l3.48,6.09,2,3.73.45.37-6.11-11.33-3.05-5.66a30.22,30.22,0,0,0-2.56-4Zm-39.09,42.13.19-.15a2.55,2.55,0,0,0,.74-.43c.09-.07.08-.09.08-.09a.33.33,0,0,0,0,.09c.14,0-.3.05.32.09l1.93.12c3.64.25,9.57.28,15.16.43l-1.53.85c15.77.14,9.4,1,8.75,1.81l16.95-.21c8.17,0,16.81,0,24,.42-3.39-5.46-2.57-2.34-6.37-8.56l3.53,7.05c-1.52-2.12-3.2-4.69-2.89-3.14.24,1.21-2.57-2.84-3.75-4-.48-.48,0,.79-.37.57a5.13,5.13,0,0,1-1.92-2.08c-2.13-3.62-3.74-5-6.49-11-.24-.52-1-1.93-1.49-2.74-2.74-4.66-5.34-9.25-7.87-13.86a26.77,26.77,0,0,0-6.2-8,22.28,22.28,0,0,0-12.41-5.29c-2-.25-7.22-.06-11.31,0l-6.44.08-1.6,0h0l-.08,0c-.12,0-.28.06-.26.2l0,.19v7.43c0,1.92,0,4.17.07,5.73a282.89,282.89,0,0,1-.3,29.9c-.12,1.34-.19,4.94-.23,4.12Zm-13.4-55.73.44,8.53c.17-1.67.24-4.06.22-7-.53-2.87,1.17-6.81,4.66-7.52a6,6,0,0,0-4.78,4.53l-.09.12a6,6,0,0,1,2.91-4.19A5.86,5.86,0,0,0,362.79,211.9Zm2.62-18.47a38.67,38.67,0,0,1,7.38-.39H379l8.5,0,4.24,0,2.12,0,2.74.1a51.78,51.78,0,0,1,10.81,1.85c5.86,1.78,8.78,3.34,10.12,3.66a84.7,84.7,0,0,1,8.39,2.65c.39.16-1.35-1.48-3.05-2.66a46.35,46.35,0,0,0-14.84-7,53.16,53.16,0,0,0-8.48-1.51,70.42,70.42,0,0,0-7.73-.27c-6.26,0-7.07.21-4.07.63.9.12.16.32.17.49-2.15,0-5.08.06-6.3,0-2.82-.19-3.72-.45-7.81-.64-3.1.11-6.29-.07-9.05.57a21,21,0,0,0-7.23,3,19.91,19.91,0,0,0-8.47,12.7,17.23,17.23,0,0,0-.38,4.4c.14,1.94.38,2.25.56,1.34a42.51,42.51,0,0,1,1.18-5.56,19.4,19.4,0,0,1,4.71-8.17A18.68,18.68,0,0,1,365.41,193.43Zm-.14,94a11.31,11.31,0,0,1-7.3-5.25c-1.66-2.82-1.8-6-1.87-9.29,0-2.28,0-4.36,0-6.32,0-1.44,0-2.78-.07-4.1l-.25-7.79L355.29,229c-.15-.71-.4-2.25-.67-3.11-.12-.4-.3.07-.41.92-.35,2.64-.66,7.54-1,8.15-.74,1.26-.51,8.43-.64,13.31a37.16,37.16,0,0,0,.4,8.15c.36,1.71.7,4.37,1,7.45.06.73.11,1.86.13,3.74,0,2.21,0,4.39,0,5.33a22.28,22.28,0,0,0,1.08,8.56,13.21,13.21,0,0,0,5.22,6.37c4.53,2.91,10.23,2.35,15.3,2.4-2.3-.41-4.39-.69-6-1.12A21.64,21.64,0,0,1,365.27,287.4Zm77.27-66.93-2.23-4a57.14,57.14,0,0,0-3.29-5l-1-.93a53.08,53.08,0,0,1,4.54,7.8l2.85,6.13,5.7,12.27.89,1.4-1.21-1.22,6.94,13c.77,1.42,2,3.38,2.66,4.41,4.32,6.46,3.59,2.95-.69-5.75C453.18,239.35,447.61,229.83,442.54,220.47ZM113.43,417.39c-4.15-2.41-4.76-2.7-3-1.07.54.47-.06.34-.15.48a29.85,29.85,0,0,1-4-3,24.45,24.45,0,0,1-3-3.82,37.48,37.48,0,0,1-8.13-12,15.94,15.94,0,0,0-.84-1.74c-1.46-3.06-.92,5.4,4.43,12.35a40.29,40.29,0,0,0,23.11,15.3c3.85.86,6,.86,6.87.53a21.18,21.18,0,0,0,5.09-2.35c.22-.14-1.15-.29-2.31-.32A43.92,43.92,0,0,1,113.43,417.39ZM98,356.49a27.64,27.64,0,0,1,4.44-4.56c5.84-4.34,12.39-7.69,18.17-9-1.4,0-2.81-.12-4,0L113,343a56.18,56.18,0,0,0-11.66,7.16,37.37,37.37,0,0,0-9.86,12.16,45.17,45.17,0,0,0-5.58,23.26c.19.67.51,2.09.81,2.86.14.36.29-.09.37-.88.07-2.45.76-6.86,1.17-7.34.87-1,1.57-7.33,3.53-11.23,1.56-3.3,2.48-5.15,3-6.55A23.24,23.24,0,0,1,98,356.49Zm66.35,42.91c-3.57,7.06-9.27,13.77-16.52,17.62a49.69,49.69,0,0,1-6,2.56,4.66,4.66,0,0,1-.63.41,37.91,37.91,0,0,0,18.58-10,7,7,0,0,0,.78-1.09,7.8,7.8,0,0,1-.5,1.33,41.1,41.1,0,0,0,6.57-10.09,32.5,32.5,0,0,0,1.23-4C168.64,389.8,167.33,392.63,164.34,399.4Zm240.53,24.48c3.85.86,6,.86,6.87.53a21.18,21.18,0,0,0,5.09-2.35c.22-.14-1.15-.29-2.31-.32a43.92,43.92,0,0,1-18-4.34c-4.15-2.41-4.76-2.7-3-1.07.54.47-.06.34-.15.48a29.85,29.85,0,0,1-4-3,24.45,24.45,0,0,1-3-3.82,37.48,37.48,0,0,1-8.13-12,15.94,15.94,0,0,0-.84-1.74c-1.46-3.06-.92,5.4,4.43,12.35A40.29,40.29,0,0,0,404.88,423.88Zm-23.78-67.39a27.64,27.64,0,0,1,4.44-4.56c5.84-4.34,12.39-7.69,18.17-9-1.4,0-2.81-.12-4,0l-3.63.1a56.18,56.18,0,0,0-11.66,7.16,37.37,37.37,0,0,0-9.86,12.16A45.17,45.17,0,0,0,369,385.58c.19.67.51,2.09.81,2.86.14.36.29-.09.37-.88.07-2.45.76-6.86,1.17-7.34.87-1,1.57-7.33,3.53-11.23,1.56-3.3,2.48-5.15,3-6.55A23.24,23.24,0,0,1,381.09,356.49Zm68.59,43.68a32.5,32.5,0,0,0,1.23-4c.82-6.34-.49-3.5-3.48,3.26-3.57,7.06-9.27,13.77-16.52,17.62a49.69,49.69,0,0,1-6,2.56,4.66,4.66,0,0,1-.63.41,37.91,37.91,0,0,0,18.58-10,7,7,0,0,0,.78-1.09,7.8,7.8,0,0,1-.5,1.33A41.1,41.1,0,0,0,449.69,400.17Z"/></svg>